<svg xmlns="http://www.w3.org/2000/svg" style="display: none;">
  
    <symbol id="icon-arrows-ccw" viewBox="0 0 512 512">
      <path d="m141 364c0 0 60-60 60-60c0 0 0 150 0 150c0 0-142-9-142-9c0 0 45-44 45-44c-39-41-59-91-58-148c1-57 21-107 62-148c34-34 75-53 122-59c0 0 2 52 2 52c-34 6-63 21-88 45c-30 30-45 67-46 109c0 43 14 80 43 112m170-307c0 0 142 9 142 9c0 0-45 44-45 44c39 41 59 91 58 148c-1 57-21 107-62 148c-32 33-73 53-122 60c0 0-1-53-1-53c33-6 62-21 87-45c30-30 45-67 46-109c0-43-14-80-43-112c0 0-59 60-59 60c0 0-1-150-1-150"/>
    </symbol>
  
    <symbol id="icon-menu" viewBox="0 0 512 512">
      <path d="m0 427l512 0 0-57-512 0z m0-143l512 0 0-56-512 0z m0-199l0 57 512 0 0-57z"/>
    </symbol>
  
    <symbol id="icon-add" viewBox="0 0 512 512">
      <path d="m512 293l-219 0 0 219-74 0 0-219-219 0 0-74 219 0 0-219 74 0 0 219 219 0z"/>
    </symbol>
  
    <symbol id="icon-close" viewBox="0 0 512 512">
      <path d="m512 51l-51-51-205 205-205-205-51 51 205 205-205 205 51 51 205-205 205 205 51-51-205-205z"/>
    </symbol>
  
    <symbol id="icon-trash-o" viewBox="0 0 512 512">
      <path d="m201 210l0 165c0 3-1 5-2 6-2 2-4 3-7 3l-18 0c-3 0-5-1-7-3-2-1-2-3-2-6l0-165c0-2 0-5 2-6 2-2 4-3 7-3l18 0c3 0 5 1 7 3 1 1 2 4 2 6z m73 0l0 165c0 3-1 5-2 6-2 2-4 3-7 3l-18 0c-3 0-5-1-7-3-1-1-2-3-2-6l0-165c0-2 1-5 2-6 2-2 4-3 7-3l18 0c3 0 5 1 7 3 1 1 2 4 2 6z m73 0l0 165c0 3 0 5-2 6-2 2-4 3-7 3l-18 0c-3 0-5-1-7-3-1-1-2-3-2-6l0-165c0-2 1-5 2-6 2-2 4-3 7-3l18 0c3 0 5 1 7 3 2 1 2 4 2 6z m37 207l0-271-256 0 0 271c0 4 1 8 2 12 1 3 3 6 4 7 2 2 3 3 3 3l238 0c0 0 1-1 3-3 1-1 3-4 4-7 1-4 2-8 2-12z m-192-307l128 0-14-34c-1-1-3-2-5-3l-90 0c-2 1-4 2-5 3z m265 9l0 18c0 3-1 5-2 7-2 1-4 2-7 2l-27 0 0 271c0 16-5 30-14 41-9 12-20 17-32 17l-238 0c-12 0-23-5-32-16-9-11-14-25-14-41l0-272-27 0c-3 0-5-1-7-2-1-2-2-4-2-7l0-18c0-3 1-5 2-7 2-1 4-2 7-2l88 0 20-48c3-7 8-13 16-18 7-5 15-7 22-7l92 0c7 0 15 2 22 7 8 5 13 11 16 18l20 48 88 0c3 0 5 1 7 2 1 2 2 4 2 7z"/>
    </symbol>
  
    <symbol id="icon-check" viewBox="0 0 512 512">
      <path d="m171 347l-120-119-40 39 160 160 341-342-40-39z"/>
    </symbol>
  
    <symbol id="icon-google-icon" viewBox="0 0 512 512">
      <path d="m435 239l-176 0 0 52 125 0c-6 73-67 105-125 105-73 0-138-58-138-140 0-79 61-140 138-140 60 0 94 38 94 38l37-38c0 0-47-52-133-52-109 0-193 92-193 192 0 97 79 192 196 192 103 0 178-70 178-175 0-22-3-34-3-34z"/>
    </symbol>
  
    <symbol id="icon-twitter" viewBox="0 0 512 512">
      <path d="m492 110c-13 18-29 35-49 50c0 0 0 12 0 12c0 44-10 87-30 128c-21 41-53 76-96 104c-43 28-92 42-148 42c-55 0-104-14-149-43c5 1 13 1 24 1c45 0 85-13 120-40c-21-1-40-8-56-20c-17-12-28-28-34-48c3 1 9 2 17 2c9 0 18-1 26-3c-23-5-41-16-56-34c-14-18-21-38-21-61c0 0 0-1 0-1c12 6 27 11 43 12c-29-20-43-47-43-81c0-16 4-32 13-48c53 64 119 98 200 100c-2-6-3-13-3-21c0-27 9-50 28-68c19-19 42-28 69-28c28 0 51 9 70 29c20-4 41-11 61-22c-7 22-21 40-42 53c19-3 38-8 56-15"/>
    </symbol>
  
    <symbol id="icon-delete" viewBox="0 0 512 512">
      <path d="m85 455c0 31 26 57 57 57l228 0c31 0 57-26 57-57l0-341-342 0z m370-427l-99 0-29-28-142 0-29 28-99 0 0 57 398 0z"/>
    </symbol>
  
    <symbol id="icon-send" viewBox="0 0 512 512">
      <path d="m11 456l468-200-468-200 0 155 334 45-334 45z"/>
    </symbol>
  
    <symbol id="icon-person-add" viewBox="0 0 512 512">
      <path d="m326 256c51 0 93-42 93-93 0-51-42-93-93-93-51 0-93 42-93 93 0 51 42 93 93 93z m-210-47l0-69-46 0 0 69-70 0 0 47 70 0 0 70 46 0 0-70 70 0 0-47z m210 94c-63 0-186 30-186 93l0 46 372 0 0-46c0-63-123-93-186-93z"/>
    </symbol>
  
    <symbol id="icon-more-horiz" viewBox="0 0 512 512">
      <path d="m64 192c-35 0-64 29-64 64 0 35 29 64 64 64 35 0 64-29 64-64 0-35-29-64-64-64z m384 0c-35 0-64 29-64 64 0 35 29 64 64 64 35 0 64-29 64-64 0-35-29-64-64-64z m-192 0c-35 0-64 29-64 64 0 35 29 64 64 64 35 0 64-29 64-64 0-35-29-64-64-64z"/>
    </symbol>
  
    <symbol id="icon-more-vert" viewBox="0 0 512 512">
      <path d="m256 128c35 0 64-29 64-64 0-35-29-64-64-64-35 0-64 29-64 64 0 35 29 64 64 64z m0 64c-35 0-64 29-64 64 0 35 29 64 64 64 35 0 64-29 64-64 0-35-29-64-64-64z m0 192c-35 0-64 29-64 64 0 35 29 64 64 64 35 0 64-29 64-64 0-35-29-64-64-64z"/>
    </symbol>
  
</svg>
